<?xml version="1.0" encoding="UTF-8"?><svg xmlns="http://www.w3.org/2000/svg" viewBox="0 0 183.16 168.01"><defs><style>.d{fill:#2a426b;}.e{fill:#ae9a3a;}.f{fill:#6a685c;}.g{fill:#cbb961;}.h{fill:#ad3950;}.i{fill:#c5a748;}.j{fill:#ae3e4f;}.k{fill:#4d3864;}.l{fill:#ba9f43;}.m{fill:#b2564b;}.n{fill:#c2a242;}.o{fill:#c7b148;}.p{fill:#bd9638;}.q{fill:#a93651;}.r{fill:#f7f3e6;}</style></defs><g id="a"/><g id="b"><g id="c"><g><path class="i" d="M147.07,90.95c8.21-.52,16.21-1.58,23.55-5.91,3.67-2.17,7-4.54,9.36-8.03,.56-.83,.94-1.38,1.67-.89,.73,.49,1.96,1.19,1.34,2.34-2.16,4.05-1.76,8.82-3.77,12.94-.53,1.08-.03,2.62-.19,3.92-.17,1.37,.68,1.37,1.62,1.81,2.7,1.25,2.3,1.19,1.04,3.8-2.34,4.85-7.31,6.5-10.91,9.79-2.32-.06-3.93,1.91-6.08,2.16-1.26,.14-1.69,.4-1.67,1.71,.07,4.98,.03,9.97,.03,15.36-1.53,0-2.97,.03-4.42,0-8.94-.21-16.19,3.42-22.59,9.44-5.42,5.09-9.56,11.34-15.17,16.22-5.23,4.56-10.74,8.65-17.57,10.65-3.22,.94-6.37,1.97-9.79,1.7-3.11-.25-6.27,.5-9.33-.41-2.81-.84-5.74-1.58-8.34-2.76-2.88-1.31-6.18-2.6-7.79-5.84v-1c3.71,1.9,7.05,4.43,11.14,5.7,7.25,2.26,14.42,3.71,21.7,.3,3.06,.2,5.07-2.23,7.67-3.21,2.58-.97,5.27-2.32,7.01-4.8,.85-1.21,2.58-1.15,3.51-2.45,.96-1.33,2.31-2.39,3.49-3.57,1.06-1.06,2.92-2.06,3-3.19,.14-2,3.08-1.35,2.59-3.4,4.46-4.42,8.81-8.87,14.62-11.75,5.74-2.85,11.54-4.9,18.06-4.66v-18.92c-3.13-.33-5.96,.59-8.59,1.39-7.59,2.31-14.42,6.14-20.05,11.89-1.63,1.67-3.35,3.25-4.92,4.97-.68,.75-1.42,.69-2.23,.68,.13-.61-.25-1.26,.33-1.85,5.61-5.68,11.04-11.63,18.71-14.62,1.67-.65,2.03-1.49,1.99-3.11-.11-4.29,.07-8.59-.1-12.87-.05-1.41,.53-2.42,1.06-3.55Zm11,10c.61,.13,1.24-.2,1.86,.33,2.66,2.25,3.58,5.17,3.07,8.67,1.38,0,2.51,.32,3.31-.05,4.79-2.26,9.13-5.18,12.56-9.28,.46-.55,.33-1.46-.35-1.62-3.65-.88-2.83-3.71-2.06-5.75,.72-1.92,.52-3.99,1.5-5.85,.42-.8,.67-2.53-.3-3.22-1.32-.94-1.8,.87-2.71,1.37-1.34,.75-2.74,1.39-4.09,2.12-3.68,1.98-7.44,3.64-11.64,4.38-2.67,.47-5.37,.89-9.06,1.33,1.77,.55,2.08,1.32,2.94,1.66,1.63,.66,3.19,1.71,2.97,3.92-.81,.01-1.58,.1-2.23-.68-.73-.87-1.57-1.95-2.54-2.21-.96-.25-1.47-1.53-2.54-1.09-1.25,.52-.63,1.71-.65,2.59-.08,2.99,.05,5.99-.06,8.98-.06,1.64,1.32,1.81,1.85,1.32,1.6-1.46,3.79-.3,5.38-1.58,1.36-1.09,3.62,.61,4.58-.79,1.19-1.74-2.33-2.14-1.79-4.05,.04-.15,0-.33,0-.5Z"/><path class="n" d="M68.07,157.95v1c-2.31,.5-2.92-2.43-4.96-2.46-1.89-2.43-4.28-4.37-6.2-6.85-2.66-3.43-5.03-7.3-8.63-9.92-3.79-2.76-7.45-5.83-11.76-7.68-2.83-1.22-5.78-2.47-9.11-2.13-2.29,.24-4.62,.05-7.34,.05,0-4.85-.21-9.63,.1-14.38,.14-2.18-1.27-3.07-2.44-3.34-6.81-1.58-11.31-6.34-15.88-11.03-1.32-1.35-1.11-1.84,.86-3.4,.65-.51,1.16-1.19,1.78-1.74,.55-.49,.73-1.02,.48-1.71-2-5.45-2.82-11.17-3.95-16.82-.16-.8-1.8-1.57-.54-2.37,1.8-1.14,1.29,1.16,2.01,1.73,2.05,1.62,3.08,4.03,4.58,6.07-.71,.15-1.82-.49-1.98,.79-.37,2.92,.92,5.56,1.57,8.31,.52,2.2,1.09,4.36-.55,6.42-.58,.73-2.22-.03-2.03,1.55,.13,1.1,1.18,1.51,1.81,2.23,2.55,2.92,5.7,5.02,9.17,6.72,1.6,.79,3.14,1.54,4.91,.65-.04-8.46,5.85-12.47,12.18-16.37-4.48,.11-8.41-1.82-12.63-2.36-1.82-.23-3.7-.86-4.45-2.94,.66,0,1.41-.21,1.96,.03,6.26,2.71,12.84,3.25,19.54,2.97,.16,0,.33,0,.49,0,0,5.81,.01,11.63-.01,17.44,0,.91,.03,1.64,1.24,1.57,.47-.03,1.08-.08,1.41,.17,4.35,3.2,9.2,5.64,12.94,9.77,5.46,6.03,11.34,11.67,18.13,16.27,5.94,4.02,12.39,6.89,19.29,8.77,1.01,1.37,1.99,1.37,3,0,1.39-1.3,3.29-.73,4.86-1.36,4.96-2.01,9.89-4.06,14.31-7.2,1.04-.74,2.25-1.79,3.83-1.44,.29,1.4-.73,1.58-1.63,2.29-3.71,2.95-7.85,5.07-12.14,6.95-3.14,1.38-6.28,2.61-9.84,2.83-4.64,.28-8.84-1.28-12.69-3.2-7.65-3.81-14.86-8.44-20.93-14.6-2.92-2.96-5.96-5.82-8.8-8.85-3.21-3.43-7.15-5.88-11.19-8.01-4.83-2.55-10.38-3.08-15.65-4.39-.8-.2-1.14,.33-1.14,1.14,.01,5.93,0,11.87,0,17.82,2.84,.1,5.16,.36,7.54,.85,3.11,.64,5.94,1.59,8.83,2.88,2.51,1.12,4.67,3.19,7.62,3.29,.13,.61-.38,1.64,.35,1.78,1.81,.34,2.65,1.78,3.77,2.88,5.73,5.59,10.45,12.13,16.46,17.47,.57,.5,1.45,.87,1.42,1.88Zm-33-63.39c-4.78,2.13-7.71,5.62-10.86,8.81-.26,.26-.09,.94-.15,1.42-.07,.55,.18,1.17,.63,1.12,3.15-.36,5.83,1.13,8.68,2,.7,.21,1.71,.27,1.7-1.05-.02-3.95,0-7.89,0-12.31Z"/><path class="l" d="M147.07,68.95v12c-1.5,.09-.85,1.24-1,2v7c-.63-.11-.8,.3-1.01,.78-1.51,3.36-2.28,6.98-3.95,10.3-3.76,7.51-9.64,13.21-15.58,18.88-.26,.25-.96,.03-1.46,.03-.35-1.37,.57-2.1,1.4-2.92,3.19-3.16,6.88-5.98,9.4-9.61,3.04-4.39,5.49-9.25,7.26-14.42,1.87-5.46,2.48-11.09,2.85-16.74,.15-2.32,.76-4.79-.81-7.13-.62-.92-.16-2.6-.09-3.92,.51-9.36-.66-18.64-1.22-27.9-.33-.6-.89-.34-1.35-.34-32.43-.01-64.86,.04-97.28-.11-2.27-.01-3.51,1.25-5.16,2.1h-1c-.7-2.17,.99-3.95,1-6,.28-.11,.76-.17,.79-.34,.14-.6-.31-.7-.79-.66-.76-3.12,1.49-5.91,1-9h2c.33,3.19-1.49,6.1-1.06,9.35,.33,2.5,.09,2.53,3.06,2.65h96c.87-.09,2.04,.44,2.01-1.23-.05-3.59-.01-7.18-.01-10.77h2v6c-1.37,1.01-1.37,1.99,0,3,.01,2.05,1.7,3.83,1,6-1.35,1.27-1.35,2.73,0,4v3c.38,.98-.93,2.53,1,3v18c.38,.98-.93,2.53,1,3Z"/><path class="r" d="M124.07,119.95c.5,0,1.2,.22,1.46-.03,5.94-5.67,11.82-11.38,15.58-18.88,1.67-3.32,2.44-6.94,3.95-10.3,.21-.48,.38-.89,1.01-.78,.69-.03,1.03,.31,1,1-.53,1.13-1.11,2.14-1.06,3.55,.17,4.29-.01,8.58,.1,12.87,.04,1.62-.32,2.46-1.99,3.11-7.67,2.99-13.1,8.93-18.71,14.62-.58,.59-.2,1.24-.33,1.85-.69-.03-1.03,.31-1,1-.69-.03-1.03,.31-1,1-.69-.03-1.03,.31-1,1-.69-.03-1.03,.31-1,1-.69-.03-1.03,.31-1,1-1.71-.08-3.44-.21-4,2v1c-1.58-.35-2.79,.7-3.83,1.44-4.42,3.14-9.35,5.19-14.31,7.2-1.57,.64-3.48,.07-4.86,1.36-.06-.87-1.59-1.75,.09-2.61,1.5-.77,3.05-1.37,4.48-2.37,5.98-4.19,12.12-8.15,18.15-12.27,2.59-1.77,5.05-3.73,7.6-5.56,.83-.6,.69-1.4,.68-2.2Z"/><path class="r" d="M90.07,144.95c-6.9-1.88-13.35-4.75-19.29-8.77-6.79-4.6-12.67-10.24-18.13-16.27-3.74-4.13-8.59-6.58-12.94-9.77-.33-.25-.94-.19-1.41-.17-1.21,.07-1.24-.67-1.24-1.57,.02-5.81,.01-11.63,.01-17.44v-1c.93-.07,1.03,.56,.99,1.24-.09,1.49,.6,2.38,2.01,2.76,.2,1.85-.85,4.21,2,5,.15,.76-.5,1.91,1,2-.03,.69,.31,1.03,1,1-.52,1.72,.36,3.57,1.18,4.44,1.92,2.02,3.12,4.53,5.14,6.44,3.93,3.71,7.49,7.81,11.97,10.92,4.4,3.06,8.82,6.1,13.09,9.3,4.17,3.13,8.69,5.68,13.02,8.54,1.68,1.11,1.52,2.03,1.6,3.36Z"/><path class="p" d="M42.07,22.95h-1c.03-.69-.31-1.03-1-1,.12-2.97,.12-2.99,2.78-3,26.76,0,53.52,0,80.28,0h18.95v2H46.84c-1.33,0-2.67-.11-3.99,.03-1.27,.13-.64,1.26-.79,1.97Z"/><path class="o" d="M49.57,16.95c-5.74,0-9.53-3.02-11.3-8.19-.65-1.9,.8-2.83,1.39-3.69C43.07,.1,47.05-.93,53.48,.84c.77,.21,1.63,.11,2.44,.11,1.2,0,1.55,1.05,.98,1.53-.98,.8-.57,2.19-1.66,2.87-.57,.36-1.23,.96-1.69,.52-1.86-1.82-4.08-.66-6.11-.86-1.19-.12-3.11,1.82-3.37,3.01-.27,1.21,1.57,3.9,2.99,3.88,2.06-.03,4.27,.77,6.17-.62,.91-.67,1.5-.28,2.06,.42,.68,.85,2.21,1.41,1.7,2.71-.38,.97-1.46,1.4-2.72,1.69-1.69,.39-3.29,1.1-4.69,.88Z"/><path class="o" d="M142.9,16.95c-1.33,0-2.47-.02-3.61,0-.52,.01-1.2-.11-1.19-.57,.05-3.81-3.7-4.76-5.37-7.26-.04-.05-.22,0-.51,0v7.17c-1.32,1.3-2.64,.25-4.01,.84V3.28c1.04-.77,2.4-.12,3.66-.33,1.48-.24,2.76,.34,3.13,1.69,.58,2.09,2.48,2.78,3.88,4.88V3.54c1.33-.96,2.61-.55,4.02-.45v13.86Z"/><path class="o" d="M62.22,2.95c3.31,0,6.43,.04,9.55-.01,4.12-.07,5.56,4.42,3.76,6.85-1.59,2.14-2.05,3.53,.12,5.23,.47,.37,.52,.86,.4,1.31-.13,.5-.6,.65-1.14,.63-1.16-.04-2.32-.06-3.47,0-1.09,.06-1.6-.43-1.33-1.43,.32-1.19-1.04-1.58-1.03-2.57,.01-1.35-1.03-.94-1.76-1.01-1.18-.12-1.3,.61-1.25,1.53,.05,.99,.01,1.98,.01,3.03-1.18,.76-2.45,.42-3.85,.27V2.95Zm6.79,3c-.49,0-.99,.04-1.48,0-.98-.1-1.5,.17-1.5,1.29,0,1.14,.12,1.92,1.56,1.73,.81-.1,1.65,.05,2.46-.04,1.06-.12,2.26-1.54,2-2.3-.38-1.1-1.34-.58-2.06-.68-.32-.04-.66,0-.98,0Z"/><path class="o" d="M87.16,2.95c1.21,.27,2.47-.25,3.79,.31,2.22,.93,3.69,2.56,4.02,4.72,.35,2.33,.47,4.69-1.95,6.63-5.39,4.33-10.38,2.48-13.63-1.93-2.11-2.86,1.12-9.17,4.75-9.71,.97-.14,1.98-.02,3.02-.02Zm-.35,10c3.56,.04,4.29-.49,4.25-3.08-.02-1.89-2.09-3.92-4-3.92-1.9,0-3.98,2.02-4,3.91-.03,2.42,.73,3.05,3.75,3.09Z"/><path class="o" d="M103.07,10.95c-.08,.97,.62,.89,1.27,1.03,.83,.18,1.31,1.59,2.46,.74,.99-.73,1.49-1.67,1.28-2.94-.05-.32,.13-.79-.03-.97-2.74-3.07,.1-5.24,1.3-7.56,.95-1.85,1.91-1.61,3.03,.52,1.15,2.17,3.04,4.22,.74,6.85-.41,.47-.18,1.62-.03,2.42,.19,.99,.9,1.83,1.91,1.85,.68,.01,1.37-.6,2.06-.93,.69-.03,1.03,.31,1,1,0,.82,.34,2.02-.07,2.38-.86,.77-2.09,1.47-3.22,1.55-3.11,.2-6.24,.02-9.35,.1-1,.02-1.68-.53-1.94-1.18-.5-1.26-1.77-2.27-1.42-3.84-.03-.69,.31-1.03,1-1Z"/><path class="g" d="M40.07,93.95c-1.4-.39-2.1-1.28-2.01-2.76,.04-.68-.06-1.31-.99-1.24,.16-4.38-1.42-8.58-1.08-13.03,.34-4.45,.32-8.97,0-13.42-.24-3.31,1.28-6.29,1.11-9.54-.16-3.14-.34-6.34,.08-9.44,.25-1.84,1.05-3.63,.89-5.57h1c0,2.32,.04,4.63-.02,6.95-.03,1.04,1.79,1.64,.96,2.51-1.82,1.91-.85,4.08-.88,6.09-.14,7.44-.01,14.89-.09,22.33-.01,1.54,.08,3.01-.73,4.66-.71,1.45-.43,3.65,.27,5.63,.76,2.15,1.69,4.41,1.49,6.83Z"/><path class="g" d="M118.07,12.95c.03-.69-.31-1.03-1-1,.09-1.9,.71-3.79,1.82-5.16,1.25-1.56,3.14-2.62,4.82-3.81,.32-.22,1.01-.13,1.27,.4,.13,.27,.22,.76,.07,.93-2.23,2.62-3.95,5.57-5.54,8.61-.11,.2-.94,.03-1.44,.03Z"/><path class="g" d="M103.07,10.95c-.69-.03-1.03,.31-1,1-1.72-.29-2.08-1.86-2.49-3.08-.49-1.47-1.52-2.36-2.73-3.66,1.72-.24,3-.72,4.59,.49,1.95,1.49,1.59,3.35,1.63,5.25Z"/><path class="n" d="M7.07,82.95c2.2-.15,3.12,1.39,4,3-3.34-.05-3.59-.23-4-3Z"/><path class="g" d="M142.07,20.95v-2c2.21,.56,2.08,2.29,2,4h-2v-2Z"/><path class="r" d="M147.07,68.95c-1.93-.47-.62-2.02-1-3,.71,.14,1.84-.46,1.94,.76,.06,.77,.7,2.08-.94,2.24Z"/><path class="r" d="M146.07,47.95c-1.93-.47-.62-2.02-1-3,.71,.14,1.84-.46,1.94,.76,.06,.77,.7,2.08-.94,2.24Z"/><path class="g" d="M144.07,31.95c-1.37-1.01-1.37-1.99,0-3,.21,.37,.39,.76,.62,1.11,.6,.9,.75,1.64-.62,1.89Z"/><path class="g" d="M145.07,41.95c-1.35-1.27-1.35-2.73,0-4v4Z"/><path class="r" d="M146.07,82.95c.15-.76-.5-1.91,1-2,.95-.07,1.1,.6,.98,1.25-.23,1.2-1.27,.61-1.98,.75Z"/><path class="n" d="M13.07,86.95c.76,.15,1.91-.5,2,1-.76-.15-1.91,.5-2-1Z"/><path class="n" d="M11.07,85.95c.76,.15,1.91-.5,2,1-.76-.15-1.91,.5-2-1Z"/><path class="g" d="M40.07,21.95c.69-.03,1.03,.31,1,1h-1v-1Z"/><path class="g" d="M39.07,31.95c.49-.04,.93,.06,.79,.66-.04,.16-.52,.23-.79,.34v-1Z"/><path class="q" d="M49.12,130.45c-6.01,3.4-8.17,1.33-10.68,.21-2.89-1.29-5.72-2.24-8.83-2.88-2.38-.49-4.71-.75-7.54-.85,0-5.95,0-11.88,0-17.82,0-.81,.34-1.34,1.14-1.14,5.26,1.31,10.82,1.84,15.65,4.39,4.04,2.13,7.98,4.59,11.19,8.01,2.84,3.04,5.88,5.89,8.8,8.85,6.07,6.16,13.28,10.8,20.93,14.6,3.85,1.92,8.05,3.48,12.69,3.2,3.56-.22,6.7-1.45,9.84-2.83,4.29-1.88,8.42-4,12.14-6.95,.9-.71,1.92-.9,1.63-2.29,.69,.03,1.03-.31,1-1,1.55,.16,2.61-.42,3-2,.69,.03,1.03-.31,1-1,.69,.03,1.03-.31,1-1,.69,.03,1.03-.31,1-1,.69,.03,1.03-.31,1-1,.69,.03,1.03-.31,1-1,.81,.01,1.55,.07,2.23-.68,1.57-1.72,3.29-3.31,4.92-4.97,5.63-5.75,12.46-9.58,20.05-11.89,2.63-.8,5.46-1.72,8.59-1.39v18.92c-6.52-.25-12.32,1.81-18.06,4.66-5.81,2.88-10.16,7.33-14.62,11.75,.49,2.05-2.44,1.4-2.59,3.4-.08,1.13-1.94,2.13-3,3.19-1.18,1.18-2.53,2.23-3.49,3.57-.93,1.3-2.66,1.24-3.51,2.45-1.75,2.48-4.43,3.83-7.01,4.8-2.61,.98-4.61,3.4-7.67,3.21-7.29,3.41-14.46,1.96-21.7-.3-4.08-1.27-7.43-3.8-11.14-5.7,.04-1-.85-1.37-1.42-1.88-6.01-5.34-10.73-11.88-16.46-17.47-1.12-1.09-1.96-2.54-3.77-2.88-.73-.13-.22-1.17,2.7-5.28,2.76-3.41,2.39-3.41,2.19-3.22-1.77,1.73-3.52,3.47-5.22,5.26-.16,.17,0,.64-.03,.97-.07,.99,.66,.41,1,.47,1.52,.3,3.25-.63,4.58,.98,.27,.32,1.4,.29,1.89,0,1.44-.83,1.87-2.47,2.49-3.88,.26-.6-3.1-4.01-6.9-.58Zm-7.5-9.5h.45c-.09-.26-.14-.54-.29-.77-.17-.26-.47-.2-.59,.19-.04,.14,.28,.39,2.86,1.8,.11-.49-.09-1.17-.49-1.15-.46,.03-1.15-.67-1.55,.4-.26,.7-1.23,1.11-1.65,1.79-.51,.83-.61,1.85,.14,2.64,.42,.44,.71,1.15,1.51,1.1,1.66-.11,.82-1.4,1.06-2.2,.26-.87,1.44-1.39-1.45-3.8Zm19,24h.45c-.09-.26-.14-.54-.29-.77-.17-.26-.47-.2-.59,.19-.04,.14,.28,.39,.88,.58,0,.5-.2,1.15,.04,1.46,.85,1.11,2.15,.55,3.21,.48,1.21-.08,.69-1.25,.73-1.97,.03-.61,.31-.87,.83-.97,2.03-.4,1.5-1.41,.41-2.23-1.23-.92-2.52-1.88-8.37,1.23,.3-.08,.78-.07,.87-.26,.59-1.28,.81-2.89,2.79-2.74,1,.08,.47-.69,.47-1-.02-2.02-.86-3.85-2.47-4.9-1.89-1.23-.97,2.81-3.03,1.95-.12-.05-.44,.45-.69,.67-1.05,.88-1.06,1.99-.47,3.04,.53,.95,1.91,1.35,1.77,2.78-.01,.13,.5,.31,4.93-2.54,0,1.27,0,2.54,0,3.8,0,.68-.11,1.26-1.45,1.2Zm11.57,2.59c-.98-.92-1.79-1.85-2.76-2.56-.82-.59-2.18,.3-2.37,1.37-.16,.88,.62,2.21-.68,2.56-2.67,.71-1.34,2-.23,2.48,1.31,.56,2.67,2.92,4.42,.56,.81,1.74,1.62,3.46,3.74,4.02,.43,.11,.72,.67,1.15,.83,.86,.32,1.61,.25,1.61-.97,0-.97-.22-1.89,1.39-1.97,.99-.05,.73-1.41,.56-2.09-.4-1.53-3.41-3.09-5.08-2.83-.56,.09-.9,.33-.86,.93,.06,.89-.49,1.23-1.21,1.05-1.26-.31-.66-2.02-1.74-2.53,.57-.23,1.14-.47,2.07-.86Zm46.87,1.17c0-.16,.07-.38-.01-.49-1.57-2.1-3.13-4.2-4.77-6.24-.08-.1-1.16,.3-1.16,.48,0,2.7-.92,5.18-1.78,7.66-.11,.33-.34,.66,.11,.68,1.29,.05,2.37,.51,3.51,1.09,.84,.43,1.57-.64,1.83-1.25,.48-1.1,2.59-.08,2.27-1.92Zm-7.02,5.78c-1.2-1.62-3.49-2.39-3.03-4.92,.08-.42-.6-.77-1.12-.6-.88,.28-1.53,.99-2.49,1.24-.63,.17-.57,1.47,.05,1.55,2.06,.27,1.54,.92,.46,1.84-.83,.71-1.33,1.44-.3,2.42,.73,.69,1.27,1.38,2.45,.51,1.1-.81,2.45-1.27,3.98-2.03Zm20.01-20.54c.19-1.31-.03-2.22-1.73-2.03-.75,.08-1.57,.27-2.27-.45-.97-1-1.03-.96-1.43-.57-.47,.46-1.01,.88-1.38,1.41-.41,.6-.13,1.13,.34,1.69,1.13,1.36,3.75,.58,4.2,2.94,.02,.1,.84-.06,1.25-.42,.81-.7,1.21-1.49,1.02-2.58Zm-8.14,1.99c-1.74,.14-3.67,1.84-3.85,3.25-.17,1.29,1.64,3.44,3.13,3.77,1.13,.25,2.04-.26,2.45-1.15,.66-1.42-.91-.54-1.27-1.01-.47-.62-.55-1.19,.05-1.69,.57-.48,.63-1.04,.65-1.72,.04-1.01-.25-1.57-1.17-1.45Zm8.02-6.99c1.9,0,3.35-.05,4.8,.02,1.08,.05,1.4-.42,1.35-1.44-.04-.85,.03-1.61-1.19-1.6-.7,0-1.58,.38-1.86-.89-.43-1.97-1.36-1.1-2.29-.28-1.22,1.07-.4,2.45-.8,4.19Zm-92.01-9.64l-.36-.36c-.11,.22-.26,.44-.31,.67-.02,.08,.2,.22,.31,.33l.36-.64Z"/><path class="h" d="M156.07,98.95c.22-2.21-1.34-3.26-2.97-3.92-.86-.35-1.16-1.11-2.94-1.66,3.69-.45,6.39-.86,9.06-1.33,4.2-.74,7.96-2.4,11.64-4.38,1.35-.73,2.75-1.37,4.09-2.12,.91-.51,1.39-2.31,2.71-1.37,.97,.69,.72,2.41,.3,3.22-.98,1.86-.78,3.93-1.5,5.85-.77,2.04-1.6,4.87,2.06,5.75,.68,.17,.8,1.07,.35,1.62-3.43,4.11-7.78,7.03-12.56,9.28-.8,.38-1.93,.05-3.31,.05,.51-3.51-.41-6.43-3.07-8.67-.63-.53-1.25-.19-1.86-.33,.03-.69-.31-1.03-1-1,.03-.69-.31-1.03-1-1Z"/><path class="j" d="M158.07,100.95c0,.17,.04,.34,0,.5-.54,1.91,2.98,2.31,1.79,4.05-.96,1.41-3.23-.3-4.58,.79-1.59,1.28-3.78,.12-5.38,1.58-.53,.48-1.91,.32-1.85-1.32,.11-2.99-.02-5.99,.06-8.98,.02-.88-.6-2.07,.65-2.59,1.07-.44,1.58,.84,2.54,1.09,.98,.25,1.82,1.34,2.54,2.21,.66,.78,1.42,.69,2.23,.68-.03,.69,.31,1.03,1,1-.03,.69,.31,1.03,1,1Z"/><path class="h" d="M11.07,85.95c.09,1.5,1.24,.85,2,1,.09,1.5,1.24,.85,2,1,.75,2.08,2.64,2.71,4.45,2.94,4.22,.54,8.14,2.47,12.63,2.36-6.34,3.9-12.22,7.91-12.18,16.37-1.78,.89-3.31,.14-4.91-.65-3.46-1.7-6.62-3.8-9.17-6.72-.63-.72-1.68-1.13-1.81-2.23-.18-1.57,1.45-.81,2.03-1.55,1.64-2.07,1.07-4.23,.55-6.42-.65-2.75-1.94-5.38-1.57-8.31,.16-1.27,1.27-.64,1.98-.79,.41,2.77,.66,2.95,4,3Z"/><path class="l" d="M90.07,144.95c-.07-1.33,.08-2.25-1.6-3.36-4.32-2.85-8.84-5.41-13.02-8.54-4.27-3.2-8.69-6.25-13.09-9.3-4.48-3.11-8.03-7.22-11.97-10.92-2.03-1.91-3.23-4.43-5.14-6.44-.82-.87-1.7-2.72-1.18-4.44,.61,.13,1.51-.39,1.82,.36,2.99,7.12,8.67,12.11,14.21,16.96,5.55,4.86,11.82,8.93,17.95,13.09,4.1,2.78,8.28,5.49,12.66,7.87,1.3,.71,1.9,.84,2.83-.21,.4-.45,.98-.78,1.49-1.13,8.29-5.69,17.07-10.66,24.81-17.16,1.17-.98,2.53-1.89,4.23-1.78,0,.8,.15,1.6-.68,2.2-2.55,1.83-5.01,3.79-7.6,5.56-6.03,4.12-12.17,8.08-18.15,12.27-1.43,1-2.98,1.6-4.48,2.37-1.68,.86-.15,1.74-.09,2.61-1.01,1.37-1.99,1.37-3,0Z"/><path class="j" d="M35.07,94.56c0,4.41-.01,8.36,0,12.31,0,1.32-1,1.26-1.7,1.05-2.85-.88-5.53-2.36-8.68-2-.45,.05-.7-.57-.63-1.12,.06-.48-.11-1.16,.15-1.42,3.15-3.19,6.07-6.67,10.86-8.81Z"/><path class="d" d="M124.07,119.95c-1.7-.11-3.06,.8-4.23,1.78-7.74,6.49-16.52,11.47-24.81,17.16-.51,.35-1.09,.68-1.49,1.13-.93,1.05-1.53,.92-2.83,.21-4.38-2.38-8.55-5.09-12.66-7.87-6.13-4.16-12.4-8.23-17.95-13.09-5.54-4.85-11.22-9.84-14.21-16.96-.32-.75-1.21-.23-1.82-.36,.03-.69-.31-1.03-1-1-.15-.76,.5-1.91-1-2,.09-1.97-.09-3.83-2-5,.19-2.42-.73-4.68-1.49-6.83-.7-1.98-.98-4.17-.27-5.63,.81-1.65,.71-3.12,.73-4.66,.07-7.44-.05-14.89,.09-22.33,.04-2.01-.93-4.18,.88-6.09,.83-.87-.99-1.47-.96-2.51,.06-2.31,.02-4.63,.02-6.95,1.65-.85,2.89-2.11,5.16-2.1,32.43,.14,64.86,.1,97.28,.11,.46,0,1.02-.26,1.35,.34,.56,9.26,1.73,18.55,1.22,27.9-.07,1.33-.53,3.01,.09,3.92,1.57,2.34,.97,4.81,.81,7.13-.38,5.65-.98,11.28-2.85,16.74-1.77,5.17-4.22,10.03-7.26,14.42-2.52,3.63-6.2,6.45-9.4,9.61-.83,.82-1.76,1.55-1.4,2.92Zm-27-57c.45,1.96,3.08,2.42,3.18,4.65,0,.13,.52,.28,.81,.35,.61,.14,.95-.25,.99-.77,.07-.99,.03-1.98,.02-2.97q-.03-2.13-3-2.25c-.11-.28-.14-.69-.34-.81-1.11-.67-2.51,.39-3.61-.63-1.21-1.11-2.74-.52-4.11-.52-1.52,0-.46-2.81-2.46-2.05-.14,.05-.32,0-.48,0h-3c-.28,.11-.76,.17-.79,.34-.14,.6,.31,.7,.79,.66-.25,1.53,.56,3.17-.99,4.57-2.37,2.15-3.52,4.91-4.38,8.1-1.11,4.1-.16,7.16,1.97,10.56,2.3,3.68,5.29,5.11,9.41,4.76-.11,.63,.27,.96,.79,.98,1.16,.06,2.35-.13,3.49,.06,1.42,.23,2.14-1.18,3.59-1.13,2.02,.06,2.02-.22,1.31-2.23-.47-1.31-1.65-2.4-3.22-2.65-.96-.15-.96-.68-.96-1.36,0-.8,0-1.6,0-2.68,1.35,0,2.48,0,3.61,0,.66,0,1.35,.07,1.4-.9,.05-.87-.43-1.05-1.19-1.12-1.27-.13-2.63,.46-3.8-.41,.08-4.1,.3-4.27,4.02-3.02,.29,.1,.52,.36,.81,.44,.54,.14,1.03-.12,1.12-.63,.12-.64,.08-1.36-.9-1.36-2.63,0-5.25,0-8.07,0,0,1.1,.02,1.91,0,2.71-.07,2.17-.08,2.17-3,2.29-1.71-.45-2.04-1.69-2.02-3.27,.06-3.58,.02-7.15,.02-10.73,1.49,0,3.04,.28,4.44-.07,1.82-.46,2.87,1.55,4.56,1.07Zm-5.42-20.92c-.23,.18-.5,.32-.69,.54-.78,.9-1.57,1.63-2.94,1.4-.96-.16-.93,.64-.96,1.31-.04,1.12,.24,2.26-.9,3.16-.39,.31-.23,1.42,.61,1.46,1.15,.05,1.4,.56,1.29,1.54-.15,1.35,.52,1.99,1.66,1.23,.74-.49,1.36-.73,2.21-.76,.82-.03,1.27,1.03,1.57,.92,.96-.36,.42-1.39,.56-2.14,.18-.9,.89-.79,1.54-.75,1.37,.09,1.89-.51,1.18-1.72-.33-.56-.67-.99-.78-1.7-.13-.92,.94-2.68-1.15-2.54-1.68,.12-2.22-1.19-3.22-1.97Zm26.93,24.92c-.78,1.53-1.21,3.45-3.64,3.02-.54-.09-.78,.32-.88,.9-.17,.95,.34,4.36,.76,5.35,.24,.57,.15,1.26,.28,1.88,.06,.29,.28,.76,.45,.77,1.7,.12,3.39-2.22,5.11,0,.12-.12,.31-.22,.34-.36,.07-.31,.12-.65,.08-.96-.2-1.36,.44-1.7,1.69-1.63,1.41,.08,1.62-.56,1.03-1.82-.62-1.31-2.14-3.63-3.81-4.7-1-.64-.54-1.87-1.39-2.46Zm-25.77,60.23c.83,1.03,1.26,.79,1.25-.45-.01-1.08-.04-2.03,1.51-1.8,1.34,.19,2.1-.63,1.22-1.63-.96-1.09-.63-2.15-.7-3.23-.05-.83-.39-1.14-1.19-1.14-.63,0-1.36,.23-1.8-.46-1.14-1.8-2.19-1.25-3.18,.13-.38,.53-.9,.37-1.36,.33-.99-.08-1.56,.15-1.52,1.31,.04,1.11,.29,2.26-.85,3.17-.43,.34-.24,1.22,.54,1.54l5.67,2,.41,.24Zm-25.5-45.24c-.9-1.72-3.12-1.93-3.09-2.65,.1-2.44-2.65-2.74-3.02-4.67-.03-.18-.86-1.07-.92-.29-.17,2.14-1.61,1.56-2.78,1.61-1.92,.07-1.82,.86-.84,2.11,.78,.99,.73,1.75-.76,1.91-.53,.05-.82,.34-.83,.95-.02,.92,.53,1.05,1.25,1.04,.16,0,.33,.01,.49,0,1.15-.11,1.35,.53,1.28,1.5-.17,2.43,1.69,1.36,2.74,1.46,1,.09,2.52,.59,2.25-1.46-.13-.96,.11-1.59,1.27-1.51,.8,.05,1.6,.01,2.97,.01Zm38.53,14.06c.85-.07,1.43,.04,1.8-.18,1.41-.86,1.42-3.13,3.41-3.51,.06-.01,.18-1.07-.4-1.24-1.03-.32-2.06-.18-3.12-.97-1.06-.79-2.22,.78-3.27,1.3-.78,.39,.25,1.29,.64,1.97,.29,.5,.04,1.29,.17,1.92,.11,.5,.56,.75,.75,.72Z"/><path class="j" d="M142.07,20.95v2c0,3.59-.03,7.18,.01,10.77,.02,1.67-1.15,1.14-2.01,1.23-.1-.85,.45-2.09-1.2-2l-6.83-2h-.97c-.11-.62,.27-.96,.78-.98,1.48-.05,2.97,.02,4.46-.04,.51-.02,.79-.38,.79-.99,0-.62-.3-.95-.82-.96-.77-.01-1.63-.29-2.26,.52-.46,.6-1.21,.75-1.64,.19-.33-.44-.29-1.21-.3-1.84-.02-.95,.71-.89,1.37-.89,1.65,0,3.3,0,4.95,0,.79,0,1.72,.18,1.66-1.11-.04-.96-.73-.89-1.38-.89-3.11,0-6.22,0-9.62,0v11h-5c-.15-.76,.5-1.91-1-2v-6.85c1.81-.51,4.22,.81,4.67-2.15-3.17,0-6.29,.05-9.41-.02-1.69-.03-1.19,1.13-1.26,2.02h-2c-.15-.71,.48-1.78-.79-1.98-1.2-.19-1.25,.65-1.22,1.55,.04,1.33-.08,2.66,.04,3.98,.09,1.02-.48,1.59-1.13,2.02-1.32,.86-3.01,.71-4.24,.29-.81-.28-1.34-1.97-1.6-3.12-.34-1.54,.26-3.22-.35-4.73h-9.71c-.33,0-.7-.09-.98,.02-1.01,.39-3.12-1.15-2.91,1.22,.14,1.58,1.91,.45,2.9,.77,0,1.93,0,3.85,0,5.78,0,.68,.09,1.29,1,1.22l-1,2h-5v-2c0-2.66-.02-5.31,.01-7.97,.01-.94-.56-1.07-1.26-1.03-.74,.05-1.75-.32-1.75,1.03,0,2.66,0,5.31,0,7.97v2h-5v-9c1.29,0,2.26,.05,3.22-.02,.52-.04,.8-.36,.8-.98,0-.63-.3-.98-.81-.98-3.29,.01-6.58,.07-9.86,.17-.12,0-.23,.53-.35,.81h-2c-2.17-1.66-4.69-.9-7.06-.95-1-.02-1.76,.87-1.91,1.88-.21,1.44-.03,2.87,.97,4.07-2.01,1.67-1.97,1.63-.31,3.27,.34,.34,.22,1.14,.31,1.73h-4v-2c0-1.83,.11-3.67-.04-5.48-.1-1.18,.76-3.29-.73-3.37-2.66-.14-.55,2.3-1.2,3.41-.21,.37,.15,1.04-.42,1.31-.66,.32-1.19,.06-1.71-.45-1.61-1.57-3.77-2.41-5.27-4.19-.82-.97-2.61-.01-2.62,1.29-.03,2.49,0,4.99,0,7.48v2h-3v-2c0-2.65-.02-5.31,.01-7.96,0-.61-.25-.95-.77-1.02-.7-.09-1.27,.08-1.26,1.02,.03,2.65,.01,5.31,.01,7.96v2c-2.96-.12-2.73-.16-3.06-2.65-.43-3.25,1.39-6.16,1.06-9.35,.15-.71-.49-1.84,.79-1.97,1.32-.14,2.66-.03,3.99-.03h95.23Z"/><path class="h" d="M73.07,24.95h2c.64,2.31,3.08-.03,4,1.55,0,2.15,0,4.3,0,6.45v2h-7v-2c0-.17-.06-.44,0-.48,1.05-.58,2.69-.71,1.98-2.6-.42-1.11-1.04-2.06-2.45-1.92-2.03,.21-3.59-1-5.34-1.79,1.93,.07,3.88-.8,5.72,.25,.42,.24,.78,.64,1.04,.02,.18-.43,.03-.99,.03-1.49Z"/><path class="h" d="M115.07,25.95h6v9h-7l-1-2c1.38-.37,2.06-1.24,2.01-2.7-.05-1.43-.01-2.87-.01-4.3Z"/><path class="h" d="M105.07,34.95h-7v-9h6c0,1.75,0,3.21,0,4.66,0,1.34,.83,1.99,2,2.34l-1,2Z"/><path class="h" d="M58.07,34.95h-6v-2c.21-1.64-.4-3.37,.43-5.17,1.58,2.31,4.73,2.46,5.57,5.17v2Z"/><path class="m" d="M131.07,30.95h.97l6.83,2c1.65-.09,1.11,1.15,1.2,2h-11v-2c1.09-.24,1.76-.91,2-2Z"/><path class="m" d="M72.07,32.95v2h-7c-.09-.59,.03-1.4-.31-1.73-1.66-1.64-1.71-1.59,.31-3.27-.07,1.16-.14,2.28,1.62,2.02,.78-.11,1.58-.02,2.38-.02,.47,1.93,2.02,.62,3,1Z"/><path class="m" d="M105.07,34.95l1-2h7l1,2h-9Z"/><path class="m" d="M87.07,34.95v-2h3v2h-3Z"/><path class="m" d="M79.07,34.95v-2h3v2h-3Z"/><path class="m" d="M121.07,34.95v-2h2c1.5,.09,.85,1.24,1,2h-3Z"/><path class="m" d="M58.07,34.95v-2h3v2h-3Z"/><path class="m" d="M52.07,32.95v2h-3v-2h3Z"/><path class="m" d="M98.07,32.95v2h-3l1-2h2Z"/><path class="m" d="M46.07,32.95v2h-2v-2h2Z"/><path class="i" d="M120.07,131.95c-.39,1.58-1.45,2.16-3,2h-1c.56-2.21,2.29-2.08,4-2Z"/><path class="i" d="M124.07,127.95c.03,.69-.31,1.03-1,1-.03-.69,.31-1.03,1-1Z"/><path class="i" d="M123.07,128.95c.03,.69-.31,1.03-1,1-.03-.69,.31-1.03,1-1Z"/><path class="i" d="M122.07,129.95c.03,.69-.31,1.03-1,1-.03-.69,.31-1.03,1-1Z"/><path class="i" d="M121.07,130.95c.03,.69-.31,1.03-1,1-.03-.69,.31-1.03,1-1Z"/><path class="n" d="M116.07,133.95h1c.03,.69-.31,1.03-1,1v-1Z"/><path class="i" d="M125.07,126.95c.03,.69-.31,1.03-1,1-.03-.69,.31-1.03,1-1Z"/><path class="g" d="M40.07,93.95c1.91,1.17,2.09,3.03,2,5-2.85-.79-1.8-3.15-2-5Z"/><path class="g" d="M42.07,98.95c1.5,.09,.85,1.24,1,2-1.5-.09-.85-1.24-1-2Z"/><path class="l" d="M43.07,100.95c.69-.03,1.03,.31,1,1-.69,.03-1.03-.31-1-1Z"/><path class="r" d="M69.01,5.95c.33,0,.66-.04,.98,0,.73,.1,1.69-.42,2.06,.68,.26,.76-.94,2.18-2,2.3-.81,.09-1.65-.07-2.46,.04-1.44,.18-1.56-.6-1.56-1.73,0-1.13,.52-1.39,1.5-1.29,.49,.05,.98,0,1.48,0Z"/><path class="r" d="M86.81,12.95c-3.02-.03-3.78-.67-3.75-3.09,.03-1.89,2.1-3.92,4-3.91,1.91,0,3.97,2.03,4,3.92,.03,2.59-.69,3.12-4.25,3.08Z"/><path class="k" d="M72.19,147.54l-2.07,.86c1.08,.51,.48,2.22,1.74,2.53,.71,.17,1.26-.16,1.21-1.05-.04-.59,.3-.84,.86-.93,1.67-.26,4.69,1.3,5.08,2.83,.17,.68,.44,2.03-.56,2.09-1.61,.08-1.39,1-1.39,1.97,0,1.22-.75,1.29-1.61,.97-.43-.16-.72-.71-1.15-.83-2.11-.57-2.93-2.28-3.74-4.02-1.75,2.35-3.11,0-4.42-.56-1.12-.48-2.45-1.78,.23-2.48,1.31-.34,.53-1.68,.68-2.56,.19-1.06,1.56-1.96,2.37-1.37,.98,.7,1.79,1.64,2.76,2.56Z"/><path class="k" d="M52.18,126.95c.75,.07,4.11,3.48,3.85,4.08-.62,1.41-1.05,3.04-2.49,3.88-.49,.29-1.63,.32-1.89,0-1.33-1.6-3.06-.67-4.58-.98-.33-.07-1.07,.52-1-.47,.02-.33-.14-.8,.03-.97,1.71-1.78,3.46-3.53,5.22-5.26,.19-.19,.57-.19,.86-.28Z"/><path class="k" d="M119.07,148.71c.31,1.84-1.79,.82-2.27,1.92-.27,.61-1,1.68-1.83,1.25-1.14-.58-2.22-1.04-3.51-1.09-.45-.02-.22-.35-.11-.68,.86-2.48,1.77-4.97,1.78-7.66,0-.17,1.08-.58,1.16-.48,1.64,2.04,3.21,4.14,4.77,6.24,.08,.11,.01,.32,.01,.49Z"/><path class="k" d="M57.91,142.95c-.27-.15-.78-.33-.77-.46,.14-1.43-1.24-1.84-1.77-2.78-.59-1.05-.57-2.16,.47-3.04,.25-.21,.58-.71,.69-.67,2.05,.85,1.13-3.19,3.03-1.95,1.62,1.05,2.45,2.88,2.47,4.9,0,.3,.53,1.07-.47,1-1.98-.15-2.2,1.47-2.79,2.74-.08,.18-.57,.18-.87,.26Z"/><path class="k" d="M112.05,154.49c-1.53,.76-2.89,1.22-3.98,2.03-1.18,.87-1.72,.18-2.45-.51-1.03-.97-.53-1.71,.3-2.42,1.08-.92,1.6-1.57-.46-1.84-.62-.08-.68-1.39-.05-1.55,.97-.25,1.61-.96,2.49-1.24,.52-.17,1.19,.18,1.12,.6-.46,2.54,1.82,3.3,3.03,4.92Z"/><path class="k" d="M132.06,133.94c.18,1.08-.21,1.88-1.02,2.58-.42,.36-1.24,.52-1.25,.42-.45-2.36-3.07-1.58-4.2-2.94-.46-.56-.74-1.09-.34-1.69,.36-.54,.91-.95,1.38-1.41,.4-.39,.46-.43,1.43,.57,.7,.72,1.53,.54,2.27,.45,1.71-.19,1.93,.72,1.73,2.03Z"/><path class="k" d="M123.92,135.93c.92-.13,1.21,.44,1.17,1.45-.03,.68-.08,1.25-.65,1.72-.6,.5-.52,1.07-.05,1.69,.36,.47,1.92-.41,1.27,1.01-.41,.89-1.32,1.41-2.45,1.15-1.49-.33-3.3-2.48-3.13-3.77,.18-1.4,2.12-3.11,3.85-3.25Z"/><path class="k" d="M61.07,144.95c.89,.06,1-.51,1-1.2,0-1.27,0-2.54,0-3.8,1.7-.11,2.99,.86,4.22,1.77,1.09,.81,1.62,1.83-.41,2.23-.53,.1-.8,.36-.83,.97-.04,.72,.48,1.89-.73,1.97-1.06,.07-2.36,.63-3.21-.48-.24-.31-.04-.96-.04-1.46Z"/><path class="k" d="M131.93,128.95c.4-1.74-.42-3.12,.8-4.19,.93-.82,1.86-1.69,2.29,.28,.28,1.28,1.16,.9,1.86,.89,1.22,0,1.15,.75,1.19,1.6,.05,1.01-.26,1.48-1.35,1.44-1.45-.06-2.9-.02-4.8-.02Z"/><path class="k" d="M44.04,122.17c.47,1.19-.71,1.71-.97,2.58-.24,.79,.6,2.09-1.06,2.2-.8,.05-1.09-.66-1.51-1.1-.75-.8-.66-1.81-.14-2.64,.42-.68,1.39-1.09,1.65-1.79,.39-1.07,1.09-.37,1.55-.4,.4-.02,.61,.65,.49,1.15Z"/><path class="k" d="M41.62,120.95c-.15-.2-.47-.45-.43-.58,.12-.39,.42-.45,.59-.19,.14,.23,.2,.51,.29,.77-.15,0-.3,0-.45,0Z"/><path class="k" d="M39.92,119.3l-.36,.64c-.11-.11-.33-.25-.31-.33,.05-.24,.2-.45,.31-.67l.36,.36Z"/><path class="k" d="M60.62,144.95c-.15-.2-.47-.45-.43-.58,.12-.39,.42-.45,.59-.19,.14,.23,.2,.51,.29,.77-.15,0-.3,0-.45,0Z"/><path class="i" d="M158.07,100.95c-.69,.03-1.03-.31-1-1,.69-.03,1.03,.31,1,1Z"/><path class="i" d="M157.07,99.95c-.69,.03-1.03-.31-1-1,.69-.03,1.03,.31,1,1Z"/><path class="e" d="M91.07,86.95c-4.12,.35-7.11-1.08-9.41-4.76-2.12-3.4-3.08-6.46-1.97-10.56,.86-3.19,2.01-5.95,4.38-8.1,1.55-1.41,.74-3.04,.99-4.57v-1h3v4c0,3.58,.04,7.15-.02,10.73-.02,1.58,.31,2.82,2.02,3.27v2c-1.16,.32-1.83,.99-2.02,2.27-.4,2.69,.49,4.63,3.02,5.73v1Zm-5-5.04c0-5.14-.01-10.05,.01-14.96,0-.62-.27-.89-.79-1-.51-.1-1,.06-1.22,.54-.73,1.61-1.9,9.64-.88,10.83,1.21,1.42,.13,3.8,2.87,4.58Z"/><path class="f" d="M90.07,77.95v-2c2.91-.11,2.92-.11,3-2.29,.03-.8,0-1.61,0-2.71,2.82,0,5.44,0,8.07,0,.98,0,1.02,.71,.9,1.36-.09,.51-.58,.77-1.12,.63-.29-.07-.53-.34-.81-.44-3.72-1.25-3.94-1.08-4.02,3.02,1.17,.87,2.53,.28,3.8,.41,.76,.08,1.24,.25,1.19,1.12-.05,.97-.74,.9-1.4,.9-1.13,0-2.26,0-3.61,0,0,1.07,0,1.88,0,2.68,0,.67,0,1.21,.96,1.36,1.57,.24,2.75,1.33,3.22,2.65,.72,2.01,.71,2.29-1.31,2.23-1.45-.05-2.17,1.36-3.59,1.13-1.14-.19-2.33,0-3.49-.06-.52-.03-.91-.35-.79-.98v-1c2.4-.05,4.93,.45,7.18-2.03h-5.18c0-1.47,.02-2.6,0-3.73-.04-2.11-.05-2.11-3-2.23Z"/><path class="e" d="M91.64,42.03c1,.78,1.54,2.08,3.22,1.97,2.09-.14,1.02,1.62,1.15,2.54,.1,.71,.45,1.14,.78,1.7,.71,1.2,.18,1.8-1.18,1.72-.64-.04-1.36-.15-1.54,.75-.15,.75,.4,1.78-.56,2.14-.3,.11-.75-.94-1.57-.92-.85,.03-1.47,.27-2.21,.76-1.15,.76-1.81,.12-1.66-1.23,.11-.99-.14-1.49-1.29-1.54-.85-.04-1-1.14-.61-1.46,1.13-.9,.86-2.05,.9-3.16,.02-.67,0-1.47,.96-1.31,1.37,.23,2.16-.5,2.94-1.4,.19-.22,.46-.37,.69-.54Z"/><path class="e" d="M118.57,66.95c.85,.6,.39,1.82,1.39,2.46,1.67,1.07,3.19,3.38,3.81,4.7,.59,1.25,.38,1.9-1.03,1.82-1.25-.07-1.89,.28-1.69,1.63,.05,.31,0,.65-.08,.96-.03,.14-.22,.24-.34,.36-1.72-2.22-3.41,.13-5.11,0-.17-.01-.39-.49-.45-.77-.13-.62-.04-1.32-.28-1.88-.42-.99-.93-4.4-.76-5.35,.1-.58,.35-.99,.88-.9,2.43,.43,2.86-1.49,3.64-3.02Z"/><path class="e" d="M92.8,127.19l-.41-.24-5.67-2c-.78-.31-.96-1.2-.54-1.54,1.14-.91,.89-2.06,.85-3.17-.04-1.16,.53-1.39,1.52-1.31,.46,.04,.98,.2,1.36-.33,.99-1.38,2.03-1.92,3.18-.13,.44,.69,1.17,.47,1.8,.46,.8,0,1.14,.3,1.19,1.14,.07,1.09-.26,2.15,.7,3.23,.88,.99,.12,1.82-1.22,1.63-1.55-.22-1.53,.73-1.51,1.8,.01,1.24-.42,1.47-1.25,.45Z"/><path class="e" d="M67.31,81.95c-1.37,0-2.18,.04-2.97-.01-1.16-.08-1.39,.55-1.27,1.51,.27,2.04-1.26,1.55-2.25,1.46-1.05-.1-2.91,.97-2.74-1.46,.07-.97-.13-1.61-1.28-1.5-.16,.02-.33,0-.49,0-.71,.01-1.26-.12-1.25-1.04,.01-.61,.3-.9,.83-.95,1.5-.15,1.55-.91,.76-1.91-.98-1.25-1.08-2.03,.84-2.11,1.18-.04,2.61,.53,2.78-1.61,.06-.78,.89,.11,.92,.29,.37,1.93,3.12,2.23,3.02,4.67-.03,.72,2.19,.93,3.09,2.65Z"/><path class="e" d="M105.84,96.01c-.19,.03-.64-.21-.75-.72-.14-.63,.12-1.42-.17-1.92-.39-.68-1.42-1.58-.64-1.97,1.04-.52,2.21-2.1,3.27-1.3,1.06,.79,2.09,.65,3.12,.97,.57,.18,.46,1.23,.4,1.24-1.99,.38-2,2.65-3.41,3.51-.37,.23-.95,.11-1.8,.18Z"/><path class="f" d="M88.07,61.95v-4c.16,0,.34,.05,.48,0,1.99-.76,.94,2.05,2.46,2.05,1.37,0,2.9-.59,4.11,.52,1.1,1.01,2.5-.04,3.61,.63,.2,.12,.23,.53,.34,.81-.76,.15-1.91-.5-2,1-1.69,.48-2.74-1.53-4.56-1.07-1.4,.35-2.96,.07-4.44,.07Z"/><path class="e" d="M97.07,62.95c.09-1.5,1.24-.85,2-1q2.96,.12,3,2.25c.01,.99,.05,1.99-.02,2.97-.03,.51-.37,.91-.99,.77-.29-.07-.81-.22-.81-.35-.1-2.22-2.73-2.69-3.18-4.65Z"/><path class="f" d="M85.07,57.95v1c-.49,.04-.93-.06-.79-.66,.04-.16,.52-.23,.79-.34Z"/><path class="p" d="M52.07,32.95h-3c0-2.49-.02-4.99,0-7.48,.01-1.3,1.8-2.26,2.62-1.29,1.51,1.78,3.66,2.63,5.27,4.19,.52,.51,1.05,.76,1.71,.45,.57-.27,.2-.94,.42-1.31,.65-1.12-1.46-3.56,1.2-3.41,1.49,.08,.63,2.19,.73,3.37,.16,1.81,.04,3.65,.04,5.48h-3c-.84-2.71-3.99-2.86-5.57-5.17-.83,1.8-.22,3.53-.43,5.17Z"/><path class="p" d="M113.07,32.95h-7c-1.17-.35-1.99-1-2-2.34,0-1.46,0-2.91,0-4.66h-6v-2h7.71c.6,1.51,0,3.19,.35,4.73,.26,1.15,.79,2.84,1.6,3.12,1.23,.43,2.92,.58,4.24-.29,.66-.43,1.23-1,1.13-2.02-.12-1.32,0-2.65-.04-3.98-.03-.9,.03-1.74,1.22-1.55,1.27,.2,.64,1.27,.79,1.98,0,1.43-.04,2.87,.01,4.3,.05,1.46-.63,2.33-2.01,2.7Z"/><path class="p" d="M72.07,32.95c-.98-.38-2.53,.93-3-1,.17,0,.33,0,.5,0,.65,.02,1.38,.14,1.49-.77,.09-.71-.11-1.26-1.03-1.24-1.65,.03-3.3,0-4.95,0-1-1.19-1.18-2.62-.97-4.07,.15-1.01,.91-1.9,1.91-1.88,2.38,.05,4.9-.71,7.06,.95,0,.5,.14,1.06-.03,1.49-.25,.62-.62,.22-1.04-.02-1.84-1.05-3.79-.18-5.72-.25,1.75,.79,3.3,2,5.34,1.79,1.41-.15,2.03,.81,2.45,1.92,.71,1.89-.93,2.02-1.98,2.6-.07,.04,0,.32,0,.48Z"/><path class="p" d="M131.07,30.95c-.24,1.09-.91,1.76-2,2v-9c3.4,0,6.51,0,9.62,0,.66,0,1.34-.06,1.38,.89,.05,1.29-.87,1.1-1.66,1.11-1.65,0-3.3,0-4.95,0-.66,0-1.39-.06-1.37,.89,.01,.63-.04,1.4,.3,1.84,.43,.57,1.17,.41,1.64-.19,.62-.8,1.48-.53,2.26-.52,.52,0,.81,.34,.82,.96,0,.61-.28,.97-.79,.99-1.48,.06-2.97-.01-4.46,.04-.51,.02-.89,.36-.78,.98Z"/><path class="p" d="M82.07,32.95h-3c0-2.15,0-4.3,0-6.45-.92-1.57-3.36,.76-4-1.55,.12-.28,.23-.81,.35-.81,3.29-.1,6.58-.16,9.86-.17,.51,0,.81,.35,.81,.98,0,.62-.29,.95-.8,.98-.96,.07-1.93,.02-3.22,.02v7Z"/><path class="p" d="M123.07,32.95h-2v-7h-4c.08-.88-.43-2.05,1.26-2.02,3.12,.06,6.24,.02,9.41,.02-.46,2.96-2.87,1.64-4.67,2.15v6.85Z"/><path class="p" d="M90.07,32.95h-3c0-2.66,0-5.31,0-7.97,0-1.35,1.01-.98,1.75-1.03,.71-.04,1.27,.08,1.26,1.03-.03,2.66-.01,5.31-.01,7.97Z"/><path class="n" d="M98.07,23.95v9h-2c-.91,.07-1-.54-1-1.22,0-1.93,0-3.85,0-5.78,1.5-.09,.85-1.24,1-2h2Z"/><path class="p" d="M46.07,32.95h-2c0-2.65,.02-5.31-.01-7.96-.01-.94,.56-1.1,1.26-1.02,.52,.06,.78,.41,.77,1.02-.03,2.65-.01,5.31-.01,7.96Z"/><path class="p" d="M96.07,23.95c-.15,.76,.5,1.91-1,2-.98-.31-2.76,.82-2.9-.77-.21-2.37,1.9-.83,2.91-1.22,.29-.11,.65-.02,.98-.02Z"/><path class="j" d="M65.07,29.95c1.65,0,3.3,.02,4.95,0,.92-.02,1.12,.53,1.03,1.24-.11,.92-.85,.79-1.49,.77-.16,0-.33,0-.5,0-.79,0-1.6-.09-2.38,.02-1.77,.26-1.69-.86-1.62-2.02Z"/><path class="d" d="M90.07,77.95c2.94,.12,2.95,.12,3,2.23,.02,1.13,0,2.27,0,3.73h5.18c-2.25,2.48-4.79,1.98-7.18,2.03-2.53-1.11-3.42-3.04-3.02-5.73,.19-1.27,.87-1.94,2.02-2.27Z"/><path class="k" d="M86.07,81.91c-2.74-.78-1.66-3.16-2.87-4.58-1.02-1.2,.15-9.22,.88-10.83,.22-.48,.71-.64,1.22-.54,.51,.1,.79,.38,.79,1-.03,4.91-.01,9.82-.01,14.96Z"/></g></g></g></svg>